<svg xmlns="http://www.w3.org/2000/svg" width="900" height="500" viewBox="0 0 900 500" role="img" aria-labelledby="title desc">
  <title id="title">Final 20:80 Pool WAF Comparison</title>
  <desc id="desc">Baseline WAF 7.990, V1-P20 WAF 6.972, and V4-P20 WAF 7.044.</desc>
  <rect width="900" height="500" fill="#ffffff"/>
  <text x="450" y="38" text-anchor="middle" font-family="sans-serif" font-size="24" font-weight="700" fill="#111827">Final 20:80 Pool WAF Comparison</text>
  <text x="450" y="64" text-anchor="middle" font-family="sans-serif" font-size="14" fill="#4b5563">3600 s, Zipf 0.99, seed 20260824 (single run)</text>

  <line x1="105" y1="410" x2="850" y2="410" stroke="#111827" stroke-width="2"/>
  <line x1="105" y1="90" x2="105" y2="410" stroke="#111827" stroke-width="2"/>

  <g font-family="sans-serif" font-size="13" fill="#4b5563" text-anchor="end">
    <text x="95" y="414">0</text>
    <text x="95" y="344">2</text>
    <text x="95" y="274">4</text>
    <text x="95" y="204">6</text>
    <text x="95" y="134">8</text>
  </g>
  <g stroke="#d1d5db" stroke-width="1">
    <line x1="105" y1="340" x2="850" y2="340"/>
    <line x1="105" y1="270" x2="850" y2="270"/>
    <line x1="105" y1="200" x2="850" y2="200"/>
    <line x1="105" y1="130" x2="850" y2="130"/>
  </g>

  <rect x="165" y="130.34" width="150" height="279.66" rx="5" fill="#6b7280"/>
  <rect x="375" y="165.98" width="150" height="244.02" rx="5" fill="#2563eb"/>
  <rect x="585" y="163.47" width="150" height="246.53" rx="5" fill="#ea580c"/>

  <g font-family="sans-serif" font-size="18" font-weight="700" text-anchor="middle" fill="#111827">
    <text x="240" y="118">7.990</text>
    <text x="450" y="154">6.972</text>
    <text x="660" y="151">7.044</text>
  </g>
  <g font-family="sans-serif" font-size="15" text-anchor="middle" fill="#111827">
    <text x="240" y="438">Baseline</text>
    <text x="450" y="438">V1-P20</text>
    <text x="660" y="438">V4-P20</text>
  </g>
  <g font-family="sans-serif" font-size="13" text-anchor="middle" fill="#4b5563">
    <text x="450" y="461">12.7% lower than Baseline</text>
    <text x="660" y="461">11.8% lower than Baseline</text>
  </g>
  <text x="28" y="255" transform="rotate(-90 28 255)" text-anchor="middle" font-family="sans-serif" font-size="16" fill="#111827">Write Amplification Factor</text>
</svg>
